#!OML:ASF H:\Dans Jumps\Project 1\Capture day 1\Session 1\subject.ASF
:FULLY-SPECIFIED
:DEGREES
327
root 0.603673 17.5295 -2.27552 6.1075 -1.02891 -0.844428
lowerback 1.53144 -0.238202 -0.977286
upperback 4.84255 -0.355872 1.39363
thorax 4.14432 -0.245911 1.97765
lowerneck -12.6792 0.278691 -1.77113
upperneck 34.1362 0.567172 0.907721
head 13.6465 0.133891 0.757993
rclavicle 4.62174e-015 -2.98177e-015
rhumerus -20.0689 -21.256 -82.2705
rradius 20.7289
rwrist 38.0349
rhand -19.5276 -26.1727
rfingers 7.12502
rthumb 6.79583 -56.0436
lclavicle 4.62174e-015 -2.98177e-015
lhumerus -16.2777 -2.14699 90.1816
lradius 16.8077
lwrist 0.990421
lhand -25.1435 -5.12536
lfingers 7.12502
lthumb 1.37299 24.85
rfemur -19.9228 -2.32449 18.5086
rtibia 30.7825
rfoot -14.8744 -1.11619
rtoes 9.34146
lfemur -18.8255 8.05841 -18.8857
ltibia 27.232
lfoot -11.5602 5.72219
ltoes 1.8164
328
root 0.601487 17.5326 -2.26574 6.13561 -1.04632 -0.846757
lowerback 1.50974 -0.23286 -0.980179
upperback 4.84722 -0.348615 1.39143
thorax 4.16119 -0.242528 1.9771
lowerneck -12.6943 0.283765 -1.77373
upperneck 34.214 0.57305 0.915569
head 13.6842 0.136525 0.763233
rclavicle -7.20594e-015 2.5842e-015
rhumerus -20.0607 -21.3085 -82.3043
rradius 20.6253
rwrist 38.2282
rhand -19.4359 -26.1447
rfingers 7.12502
rthumb 6.88434 -56.0128
lclavicle -7.20594e-015 2.5842e-015
lhumerus -16.2276 -2.24003 90.2159
lradius 16.8589
lwrist 1.05563
lhand -25.1611 -5.15706
lfingers 7.12502
lthumb 1.35594 24.8184
rfemur -19.8685 -2.31873 18.5176
rtibia 30.6866
rfoot -14.8646 -1.09949
rtoes 9.37597
lfemur -18.7676 8.04143 -18.8741
ltibia 27.1416
lfoot -11.5428 5.75477
ltoes 1.82173
329
root 0.599202 17.5359 -2.25594 6.16411 -1.06116 -0.849516
lowerback 1.48437 -0.227228 -0.981894
upperback 4.85011 -0.340961 1.38945
thorax 4.17824 -0.238894 1.97612
lowerneck -12.7061 0.288166 -1.77289
upperneck 34.2956 0.577928 0.920572
head 13.7229 0.138771 0.766616
rclavicle -4.67144e-015 1.98785e-016
rhumerus -20.0492 -21.3692 -82.3324
rradius 20.5303
rwrist 38.4277
rhand -19.334 -26.1252
rfingers 7.12502
rthumb 6.98272 -55.9901
lclavicle -4.67144e-015 1.98785e-016
lhumerus -16.1731 -2.34125 90.2459
lradius 16.9
lwrist 1.11663
lhand -25.187 -5.20448
lfingers 7.12502
lthumb 1.33094 24.7711
rfemur -19.8116 -2.31337 18.5274
rtibia 30.5865
rfoot -14.8468 -1.08211
rtoes 9.42927
lfemur -18.7088 8.0211 -18.8615
ltibia 27.0485
lfoot -11.5231 5.78877
ltoes 1.82878
330
root 0.596882 17.5394 -2.24621 6.19878 -1.06965 -0.860565
lowerback 1.4502 -0.217994 -0.976199
upperback 4.85171 -0.328641 1.39067
thorax 4.19871 -0.232733 1.97437
lowerneck -12.7275 0.287524 -1.75596
upperneck 34.3899 0.575349 0.913698
head 13.7697 0.138251 0.761475
rclavicle 1.2424e-015 -1.55052e-014
rhumerus -20.0308 -21.4737 -82.3448
rradius 20.4395
rwrist 38.6431
rhand -19.2255 -26.0761
rfingers 7.12502
rthumb 7.08745 -55.9374
lclavicle 1.2424e-015 -1.55052e-014
lhumerus -16.1105 -2.46594 90.2784
lradius 16.9325
lwrist 1.16382
lhand -25.2544 -5.26388
lfingers 7.12502
lthumb 1.26586 24.7121
rfemur -19.7583 -2.30695 18.547
rtibia 30.4804
rfoot -14.8253 -1.07106
rtoes 9.47618
lfemur -18.6593 7.99427 -18.84
ltibia 26.9569
lfoot -11.5021 5.82496
ltoes 1.84063
331
root 0.59435 17.543 -2.23656 6.23462 -1.07657 -0.88013
lowerback 1.4125 -0.210354 -0.964796
upperback 4.85333 -0.318656 1.39616
thorax 4.22129 -0.227626 1.97379
lowerneck -12.7522 0.287261 -1.74415
upperneck 34.4851 0.573788 0.909695
head 13.8178 0.137881 0.758555
rclavicle -4.87022e-015 -1.39149e-015
rhumerus -20.002 -21.5826 -82.3534
rradius 20.3534
rwrist 38.8556
rhand -19.1251 -26.0426
rfingers 7.12502
rthumb 7.18444 -55.9006
lclavicle -4.87022e-015 -1.39149e-015
lhumerus -16.0447 -2.59286 90.3076
lradius 16.9635
lwrist 1.22975
lhand -25.3378 -5.35056
lfingers 7.12502
lthumb 1.18529 24.6259
rfemur -19.704 -2.29748 18.577
rtibia 30.3701
rfoot -14.8007 -1.06401
rtoes 9.51649
lfemur -18.6122 7.96805 -18.8085
ltibia 26.8656
lfoot -11.4803 5.86154
ltoes 1.84692
332
root 0.591625 17.5467 -2.22725 6.27486 -1.08032 -0.905578
lowerback 1.37035 -0.203877 -0.950079
upperback 4.85457 -0.31036 1.40464
thorax 4.24607 -0.223312 1.9744
lowerneck -12.7819 0.283473 -1.73788
upperneck 34.5818 0.566596 0.911533
head 13.8678 0.135121 0.758133
rclavicle 4.91992e-015 2.38542e-015
rhumerus -19.9604 -21.7074 -82.358
rradius 20.2674
rwrist 39.0646
rhand -19.0357 -26.005
rfingers 7.12502
rthumb 7.27066 -55.8601
lclavicle 4.91992e-015 2.38542e-015
lhumerus -15.9767 -2.71154 90.331
lradius 17.0003
lwrist 1.29353
lhand -25.4169 -5.43029
lfingers 7.12502
lthumb 1.10888 24.5466
rfemur -19.6536 -2.28636 18.6145
rtibia 30.2566
rfoot -14.7696 -1.05963
rtoes 9.57239
lfemur -18.5721 7.94075 -18.7701
ltibia 26.7753
lfoot -11.4579 5.89589
ltoes 1.85392
333
root 0.588714 17.5505 -2.21828 6.31793 -1.0821 -0.92788
lowerback 1.32754 -0.201429 -0.942857
upperback 4.85417 -0.30745 1.41585
thorax 4.26984 -0.222015 1.98192
lowerneck -12.8146 0.281047 -1.74157
upperneck 34.6794 0.562884 0.917106
head 13.919 0.133031 0.761522
rclavicle -1.59028e-015 -1.13307e-014
rhumerus -19.9095 -21.803 -82.3656
rradius 20.1916
rwrist 39.2332
rhand -18.9761 -25.9763
rfingers 7.12502
rthumb 7.32819 -55.8294
lclavicle -1.59028e-015 -1.13307e-014
lhumerus -15.9124 -2.8096 90.3491
lradius 17.0483
lwrist 1.369
lhand -25.479 -5.49904
lfingers 7.12502
lthumb 1.04895 24.4781
rfemur -19.607 -2.27699 18.6493
rtibia 30.1427
rfoot -14.7421 -1.05808
rtoes 9.60059
lfemur -18.5347 7.91396 -18.7351
ltibia 26.6815
lfoot -11.4352 5.92639
ltoes 1.85929
334
root 0.585637 17.5544 -2.20974 6.36133 -1.08279 -0.950325
lowerback 1.2879 -0.201883 -0.936548
upperback 4.85139 -0.308443 1.42816
thorax 4.2895 -0.222674 1.99101
lowerneck -12.8382 0.279805 -1.75769
upperneck 34.7691 0.560909 0.931917
head 13.9646 0.131332 0.770975
rclavicle 2.88238e-015 -8.15017e-015
rhumerus -19.8555 -21.8579 -82.3799
rradius 20.1321
rwrist 39.3515
rhand -18.9361 -25.9682
rfingers 7.12502
rthumb 7.36681 -55.82
lclavicle 2.88238e-015 -8.15017e-015
lhumerus -15.8551 -2.88943 90.3593
lradius 17.1091
lwrist 1.45739
lhand -25.5089 -5.55179
lfingers 7.12502
lthumb 1.02002 24.4255
rfemur -19.5618 -2.2683 18.6847
rtibia 30.0285
rfoot -14.7163 -1.05716
rtoes 9.6234
lfemur -18.4969 7.89134 -18.6996
ltibia 26.5838
lfoot -11.4108 5.94964
ltoes 1.86582
335
root 0.582495 17.5584 -2.20136 6.404 -1.08096 -0.960035
lowerback 1.25083 -0.205127 -0.942975
upperback 4.84502 -0.312885 1.43786
thorax 4.30419 -0.225425 2.00445
lowerneck -12.8473 0.27941 -1.78154
upperneck 34.8497 0.560456 0.951145
head 14.0029 0.129917 0.783665
rclavicle 3.57812e-015 1.27222e-014
rhumerus -19.806 -21.8557 -82.4026
rradius 20.0987
rwrist 39.402
rhand -18.9192 -25.9716
rfingers 7.12502
rthumb 7.3831 -55.8227
lclavicle 3.57812e-015 1.27222e-014
lhumerus -15.8059 -2.95291 90.3627
lradius 17.1787
lwrist 1.55645
lhand -25.5148 -5.58377
lfingers 7.12502
lthumb 1.01435 24.3936
rfemur -19.5166 -2.26502 18.7061
rtibia 29.915
rfoot -14.689 -1.05236
rtoes 9.66528
lfemur -18.4554 7.87036 -18.6782
ltibia 26.4794
lfoot -11.3851 5.96597
ltoes 1.87147
336
root 0.579341 17.5625 -2.19302 6.44414 -1.07835 -0.970982
lowerback 1.21776 -0.207909 -0.946896
upperback 4.83558 -0.316721 1.44738
thorax 4.31336 -0.227705 2.0163
lowerneck -12.8426 0.27815 -1.80498
upperneck 34.9221 0.558487 0.96986
head 14.0345 0.127894 0.795717
rclavicle 4.91992e-015 -5.96354e-016
rhumerus -19.7654 -21.7969 -82.4329
rradius 20.0973
rwrist 39.381
rhand -18.9189 -25.9807
rfingers 7.12502
rthumb 7.38345 -55.8318
lclavicle 4.91992e-015 -5.96354e-016
lhumerus -15.7694 -3.01867 90.3621
lradius 17.2601
lwrist 1.66918
lhand -25.5032 -5.60682
lfingers 7.12502
lthumb 1.02558 24.3705
rfemur -19.4675 -2.26225 18.7289
rtibia 29.7998
rfoot -14.6673 -1.04901
rtoes 9.69634
lfemur -18.4095 7.85267 -18.655
ltibia 26.3708
lfoot -11.3587 5.97633
ltoes 1.88645
337
root 0.576166 17.5665 -2.18476 6.48285 -1.07614 -0.978735
lowerback 1.18581 -0.210613 -0.951876
upperback 4.8238 -0.320336 1.45439
thorax 4.31942 -0.229817 2.02617
lowerneck -12.8187 0.277551 -1.83128
upperneck 34.9805 0.556568 0.99222
head 14.0554 0.126104 0.809536
rclavicle -2.28602e-015 -3.97569e-016
rhumerus -19.7342 -21.6773 -82.4742
rradius 20.1317
rwrist 39.2917
rhand -18.9323 -26.0084
rfingers 7.12502
rthumb 7.37054 -55.86
lclavicle -2.28602e-015 -3.97569e-016
lhumerus -15.7398 -3.09207 90.3564
lradius 17.3459
lwrist 1.80256
lhand -25.4828 -5.63177
lfingers 7.12502
lthumb 1.04527 24.3454
rfemur -19.4166 -2.25983 18.7479
rtibia 29.6831
rfoot -14.643 -1.04218
rtoes 9.7572
lfemur -18.3603 7.83727 -18.635
ltibia 26.2581
lfoot -11.3305 5.9833
ltoes 1.90037
338
root 0.57315 17.5705 -2.17669 6.5239 -1.06893 -0.99327
lowerback 1.15364 -0.209396 -0.947761
upperback 4.80955 -0.318834 1.46194
thorax 4.32274 -0.228992 2.0316
lowerneck -12.7932 0.271663 -1.84245
upperneck 35.0421 0.546251 1.00424
head 14.0777 0.121334 0.815255
rclavicle 4.67144e-015 -2.20651e-014
rhumerus -19.7103 -21.5468 -82.5117
rradius 20.1918
rwrist 39.1647
rhand -18.9488 -26.0095
rfingers 7.12502
rthumb 7.35461 -55.8617
lclavicle 4.67144e-015 -2.20651e-014
lhumerus -15.71 -3.19145 90.353
lradius 17.426
lwrist 1.93137
lhand -25.4875 -5.63865
lfingers 7.12502
lthumb 1.0407 24.3386
rfemur -19.3679 -2.2592 18.7744
rtibia 29.5646
rfoot -14.6145 -1.03522
rtoes 9.83955
lfemur -18.3152 7.81684 -18.6079
ltibia 26.1445
lfoot -11.2998 5.99026
ltoes 1.91543
339
root 0.570139 17.5745 -2.1688 6.5633 -1.06094 -1.00763
lowerback 1.12132 -0.208417 -0.94269
upperback 4.7976 -0.31765 1.46846
thorax 4.32854 -0.228301 2.03544
lowerneck -12.7703 0.26626 -1.85103
upperneck 35.0969 0.536867 1.01374
head 14.0976 0.117021 0.819599
rclavicle -3.18055e-015 -8.94531e-015
rhumerus -19.6795 -21.3984 -82.5538
rradius 20.2666
rwrist 39.0159
rhand -18.9722 -26.0252
rfingers 7.12502
rthumb 7.33197 -55.8782
lclavicle -3.18055e-015 -8.94531e-015
lhumerus -15.675 -3.30374 90.3468
lradius 17.5013
lwrist 2.08245
lhand -25.5044 -5.64561
lfingers 7.12502
lthumb 1.02444 24.3317
rfemur -19.3185 -2.25996 18.8008
rtibia 29.4465
rfoot -14.5919 -1.0305
rtoes 9.89142
lfemur -18.2685 7.79562 -18.5806
ltibia 26.0293
lfoot -11.268 5.99707
ltoes 1.92908
